<?xml version="1.0" standalone="no"?>
<!DOCTYPE svg PUBLIC "-//W3C//DTD SVG 20010904//EN"
 "http://www.w3.org/TR/2001/REC-SVG-20010904/DTD/svg10.dtd">
<svg version="1.0" xmlns="http://www.w3.org/2000/svg"
 width="492.000000pt" height="507.000000pt" viewBox="0 0 492.000000 507.000000"
 preserveAspectRatio="xMidYMid meet">

<g transform="translate(0.000000,507.000000) scale(0.100000,-0.100000)"
fill="#000000" stroke="none">
<path d="M3555 4860 c-245 -28 -510 -97 -660 -172 l-80 -40 -65 20 c-147 47
-225 57 -440 57 -189 0 -213 -3 -310 -27 -58 -15 -170 -50 -250 -79 -80 -28
-158 -51 -175 -52 -16 0 -66 9 -110 21 -289 76 -725 46 -992 -69 l-46 -19 7
-50 c10 -72 80 -284 141 -426 101 -234 246 -444 400 -577 76 -66 79 -71 105
-150 15 -45 43 -115 63 -154 21 -40 33 -73 27 -73 -6 0 -70 7 -143 16 -97 12
-177 15 -302 11 -165 -5 -325 -23 -325 -36 0 -3 89 -5 197 -3 191 3 376 -7
533 -30 l75 -11 67 -71 c37 -39 66 -75 64 -81 -1 -5 -16 -10 -32 -11 -88 -1
-356 -67 -484 -118 -56 -23 -60 -25 -25 -20 22 3 63 12 90 20 109 30 315 65
412 71 l102 6 53 -35 c29 -19 67 -42 83 -51 53 -26 208 -78 286 -95 42 -10 77
-20 78 -25 1 -4 -23 -58 -54 -120 -58 -116 -74 -178 -76 -292 -1 -33 -5 -73
-8 -90 -6 -22 -1 -41 17 -73 17 -30 23 -52 19 -75 -3 -19 2 -43 11 -58 14 -24
13 -30 -12 -84 -17 -38 -26 -75 -26 -109 0 -28 -9 -94 -20 -146 -11 -52 -23
-124 -26 -160 -6 -58 -12 -70 -51 -114 -40 -44 -47 -58 -44 -78 0 -5 -3 -8 -9
-8 -5 0 -2 -13 7 -29 l17 -28 33 35 c33 35 57 38 33 5 -7 -10 0 -5 15 12 15
16 33 30 39 31 6 1 65 16 131 33 66 16 144 33 173 37 29 4 55 11 58 16 3 5 31
6 62 2 l57 -6 23 41 c13 23 26 41 29 41 3 0 3 -21 -1 -48 -37 -284 -42 -584
-10 -698 5 -20 0 -23 -46 -33 -28 -6 -89 -11 -135 -11 l-85 0 -1 28 c-1 21 -2
22 -6 7 -3 -11 -10 -23 -17 -27 -8 -6 -8 -10 0 -15 6 -5 11 -23 12 -42 1 -49
12 -52 12 -3 0 31 4 42 15 42 8 0 15 -7 15 -15 0 -20 20 -19 37 3 8 9 11 11 7
3 -5 -11 -1 -13 20 -9 17 4 25 1 23 -6 -2 -6 -21 -14 -43 -17 -28 -4 -32 -7
-12 -8 14 0 28 -6 30 -13 2 -6 14 4 26 24 l21 35 161 20 c88 12 170 19 181 16
11 -3 28 -22 38 -42 28 -53 51 -70 112 -78 48 -7 56 -12 70 -41 8 -19 20 -37
27 -41 12 -7 42 -153 42 -209 0 -65 65 -102 202 -117 45 -5 67 -2 100 13 69
30 70 33 71 206 1 85 -1 152 -4 148 -4 -4 -12 -24 -19 -45 -7 -21 -14 -36 -16
-34 -2 2 3 23 11 47 19 54 19 74 0 90 -13 11 -13 15 -3 21 7 5 8 9 2 9 -20 0
-23 -13 -9 -34 21 -29 19 -32 -20 -28 -19 2 -35 10 -35 17 0 7 -7 19 -17 26
-15 13 -15 12 -5 -8 7 -12 12 -24 12 -27 0 -3 -28 -6 -62 -6 -35 -1 -83 -5
-108 -10 -35 -7 -47 -6 -56 6 -17 21 -26 17 -19 -8 5 -18 4 -20 -4 -8 -6 8
-11 23 -11 33 0 9 -4 17 -10 17 -5 0 -8 -17 -7 -37 2 -32 -1 -38 -19 -41 -16
-2 -24 5 -35 30 -16 41 -26 48 -65 48 -42 0 -91 18 -98 36 -4 10 3 14 24 14
20 0 30 -5 30 -15 0 -8 5 -15 11 -15 6 0 9 7 6 15 -4 8 -1 17 5 21 7 4 6 9 -3
15 -11 7 -11 9 1 9 13 0 13 1 0 10 -12 8 -12 10 5 10 17 0 17 2 5 10 -12 8
-10 10 9 10 20 0 22 2 11 15 -7 9 -21 13 -31 10 -11 -4 -19 -2 -19 4 0 6 -4
11 -10 11 -5 0 -10 -6 -10 -13 0 -7 -8 -13 -17 -13 -10 -1 -67 -7 -126 -14
-89 -11 -110 -11 -117 0 -25 41 -40 345 -24 498 l7 61 76 4 76 3 -77 2 -78 2
6 78 c13 154 19 195 31 200 15 4 13 9 44 -112 l22 -88 43 6 c25 3 46 1 49 -4
4 -6 25 -8 49 -5 40 6 237 -8 321 -22 36 -6 38 -5 25 9 -9 8 -22 17 -30 21
-10 4 -11 6 -2 6 7 1 25 -7 39 -16 26 -17 27 -17 20 0 -4 12 -3 16 4 11 6 -3
9 -15 6 -25 -3 -12 0 -19 10 -19 8 0 24 -10 34 -23 l20 -22 -11 23 c-11 22
-10 23 9 12 12 -6 32 -33 46 -60 14 -28 28 -50 30 -50 3 0 -4 18 -15 39 -16
32 -18 45 -9 70 7 21 15 28 26 24 13 -5 14 -3 3 18 -7 13 -19 31 -26 39 -7 9
-31 48 -53 88 -28 50 -35 72 -25 72 8 0 14 7 14 15 0 26 20 17 119 -58 107
-80 321 -289 426 -414 37 -46 75 -83 82 -83 22 0 71 54 79 85 9 38 -10 72
-121 207 -107 132 -299 320 -443 433 l-101 80 0 74 c-1 41 -3 72 -7 69 -3 -3
-11 -73 -19 -154 -8 -82 -17 -168 -21 -192 l-6 -43 -42 7 c-22 3 -44 12 -48
18 -5 8 -8 7 -8 -2 0 -7 -5 -10 -11 -6 -8 4 -7 9 2 15 8 4 19 3 26 -3 23 -19
26 -1 4 21 -26 26 -34 26 -46 -1 -6 -12 -17 -24 -25 -26 -11 -4 -10 0 4 13 11
11 16 27 13 42 -4 20 0 23 29 23 18 0 36 6 41 13 11 16 32 114 32 151 1 16 8
38 17 47 15 17 15 21 -1 46 -10 16 -29 40 -43 56 l-26 27 62 0 c55 0 62 -2 62
-20 0 -11 5 -20 11 -20 5 0 8 4 5 9 -17 27 153 121 217 121 43 0 45 5 18 81
-71 202 -143 289 -365 441 -50 34 -98 71 -106 81 -9 10 -40 24 -70 31 l-54 12
100 53 c189 101 338 215 416 320 l25 33 187 -11 c279 -18 446 -46 568 -97 32
-13 61 -24 65 -23 18 1 -105 51 -209 84 -190 62 -262 76 -420 82 -82 3 -148 9
-148 14 0 4 17 38 39 76 21 37 41 77 45 89 5 16 29 28 110 53 219 67 392 103
586 121 77 7 54 8 -115 5 -226 -4 -327 -19 -472 -69 -40 -14 -73 -24 -73 -22
0 1 9 45 20 96 11 51 20 95 20 98 0 2 29 34 64 70 161 169 340 466 420 698 55
162 95 322 102 415 6 78 5 87 -12 94 -28 12 -356 15 -449 5z m-470 -1317 c-2
-16 -7 -60 -10 -100 -15 -203 -147 -371 -330 -419 -69 -19 -123 -17 -194 5
-55 17 -151 66 -151 76 0 6 63 63 157 144 l73 62 25 -28 c33 -37 29 -67 -9
-71 -27 -3 -28 -4 -21 -50 8 -57 29 -92 55 -92 28 0 76 64 94 126 28 96 45
158 51 191 4 20 18 41 35 53 43 30 213 130 222 130 4 0 6 -12 3 -27z m-1695
-151 c105 -43 116 -50 133 -84 9 -21 23 -38 30 -38 7 0 26 -13 41 -29 24 -24
26 -32 17 -50 -7 -12 -16 -21 -22 -21 -17 0 39 -96 76 -128 20 -18 39 -32 43
-32 32 1 55 58 46 117 -5 35 -10 43 -28 44 -17 1 -17 2 -3 6 20 5 21 12 7 49
-6 15 -9 29 -6 31 4 5 232 -132 254 -152 12 -10 6 -19 -33 -49 -155 -118 -318
-129 -469 -32 -127 82 -200 197 -224 359 -8 49 -7 57 7 57 9 -1 68 -22 131
-48z m760 -830 c19 -13 56 -35 81 -48 l47 -23 46 49 c32 34 55 50 71 50 14 0
25 -3 25 -7 0 -5 -27 -50 -107 -181 -13 -22 -14 -22 -102 50 -49 40 -108 88
-131 105 l-43 33 39 -2 c22 -1 53 -12 74 -26z m490 -123 c0 -6 -4 -7 -10 -4
-6 4 -10 -7 -10 -24 0 -28 -3 -31 -31 -31 -27 0 -30 3 -27 28 2 21 9 28 31 30
15 2 27 8 27 13 0 6 5 7 10 4 6 -3 10 -11 10 -16z m-129 -460 c-39 -109 -46
-100 -16 19 13 52 42 108 51 99 3 -2 -13 -56 -35 -118z m-171 -355 c0 -8 -19
-13 -24 -6 -3 5 1 9 9 9 8 0 15 -2 15 -3z m245 -48 c132 -21 190 -38 190 -56
0 -10 -8 -14 -23 -13 -13 2 -21 -1 -17 -7 3 -6 45 -10 93 -10 48 0 96 -3 108
-6 18 -5 129 -173 119 -182 -2 -2 -16 3 -32 11 -81 42 -299 45 -485 7 -51 -11
-95 -20 -98 -20 -5 0 -23 68 -50 195 -10 42 3 72 19 46 7 -11 13 -6 25 18 19
36 24 37 151 17z m-211 -18 c-4 -7 -24 -38 -43 -68 -19 -30 -48 -77 -63 -105
l-27 -50 -133 -1 c-124 -1 -140 -3 -248 -38 -63 -20 -139 -48 -168 -61 -30
-14 -56 -25 -59 -25 -2 0 4 14 14 31 26 44 144 151 160 144 9 -3 11 0 7 7 -5
8 -2 9 10 5 10 -4 15 -3 11 3 -7 12 32 33 47 24 6 -4 8 -3 5 3 -4 6 10 17 31
26 103 42 142 57 152 57 18 0 -12 -25 -56 -48 -42 -21 -54 -48 -23 -48 10 0
15 5 12 10 -4 5 1 7 10 3 10 -3 24 -4 32 -1 14 6 13 8 -2 20 -21 16 -10 18 16
4 18 -9 102 15 109 32 2 4 9 5 16 2 7 -3 19 2 26 11 7 8 19 15 26 15 8 0 14 4
14 8 0 4 15 14 33 22 17 7 35 15 39 17 3 2 8 -4 11 -14 4 -14 5 -13 6 5 1 15
7 22 22 22 13 0 18 -4 13 -12z m-244 -38 c-8 -5 -22 -9 -30 -9 -10 0 -8 3 5 9
27 12 43 12 25 0z m5 -40 c3 -6 -1 -7 -9 -4 -18 7 -21 14 -7 14 6 0 13 -4 16
-10z m-38 -22 c-8 -4 -23 -5 -33 -1 -16 6 -16 7 2 13 26 10 52 0 31 -12z m-63
-16 c3 -5 -8 -9 -25 -9 -19 0 -25 3 -17 9 17 10 35 10 42 0z m281 -137 c-4
-52 -10 -95 -14 -95 -3 0 -2 45 3 100 5 55 11 98 14 96 2 -3 1 -48 -3 -101z
m539 27 c2 -4 -11 -6 -30 -4 -19 2 -34 6 -34 8 0 8 59 4 64 -4z m-191 -29 c-7
-2 -21 -2 -30 0 -10 3 -4 5 12 5 17 0 24 -2 18 -5z m172 -2 c-19 -8 -18 -9 5
-13 25 -5 25 -5 -2 -7 -16 0 -28 3 -28 8 0 5 -8 12 -17 14 -10 3 0 5 22 5 30
0 35 -1 20 -7z m-87 -8 c-10 -2 -28 -2 -40 0 -13 2 -5 4 17 4 22 1 32 -1 23
-4z m257 -23 c3 -5 -1 -10 -10 -10 -9 0 -13 5 -10 10 3 6 8 10 10 10 2 0 7 -4
10 -10z m-700 -107 c-18 -147 -11 -424 14 -511 13 -45 -5 -40 -20 6 -24 76
-23 542 2 542 5 0 7 -17 4 -37z m268 -540 c-7 -2 -21 -2 -30 0 -10 3 -4 5 12
5 17 0 24 -2 18 -5z m40 -16 c3 -9 -6 -11 -37 -8 l-41 5 35 7 c19 3 36 7 36 8
1 0 4 -5 7 -12z m478 -308 c-11 -24 -20 -41 -20 -37 -1 12 31 89 35 85 3 -2
-4 -24 -15 -48z m-30 -76 c-12 -20 -14 -14 -5 12 4 9 9 14 11 11 3 -2 0 -13
-6 -23z m-20 -50 c-12 -20 -14 -14 -5 12 4 9 9 14 11 11 3 -2 0 -13 -6 -23z"/>
<path d="M2300 2486 c0 -2 8 -10 18 -17 15 -13 16 -12 3 4 -13 16 -21 21 -21
13z"/>
<path d="M2446 1564 c-3 -9 -4 -19 -1 -22 3 -3 5 0 5 6 0 7 7 12 15 12 8 0 15
-4 15 -10 0 -5 19 -10 43 -11 31 0 37 -2 22 -8 -16 -7 -8 -11 38 -20 31 -7 55
-17 52 -22 -4 -5 9 -9 27 -9 19 0 43 -7 55 -15 15 -11 28 -12 45 -6 27 10 22
13 -59 37 -34 10 -38 12 -14 9 66 -10 20 9 -77 31 -121 28 -98 31 33 4 53 -11
102 -20 109 -19 26 2 -171 48 -233 54 -59 6 -69 4 -75 -11z"/>
<path d="M2790 1450 c-8 -5 -10 -10 -5 -10 6 0 17 5 25 10 8 5 11 10 5 10 -5
0 -17 -5 -25 -10z"/>
<path d="M2845 1380 c3 -5 8 -10 11 -10 2 0 4 5 4 10 0 6 -5 10 -11 10 -5 0
-7 -4 -4 -10z"/>
<path d="M4198 3463 c7 -3 16 -2 19 1 4 3 -2 6 -13 5 -11 0 -14 -3 -6 -6z"/>
<path d="M321 3049 c-18 -6 -31 -12 -29 -14 2 -2 26 2 53 10 28 7 41 13 30 13
-11 0 -35 -4 -54 -9z"/>
<path d="M230 3015 c-33 -19 -21 -19 21 0 19 8 27 14 19 14 -8 0 -26 -6 -40
-14z"/>
<path d="M4074 2936 c11 -9 24 -16 30 -16 12 0 7 5 -24 19 -24 11 -24 11 -6
-3z"/>
<path d="M720 2700 c-8 -5 -10 -10 -5 -10 6 0 17 5 25 10 8 5 11 10 5 10 -5 0
-17 -5 -25 -10z"/>
<path d="M666 2684 c-3 -8 -14 -14 -25 -14 -24 0 -178 -73 -164 -77 5 -2 40
10 77 27 37 16 72 30 77 30 5 0 22 8 39 19 23 13 27 20 16 24 -8 3 -17 -1 -20
-9z"/>
<path d="M3290 2011 c-8 -5 -34 -11 -57 -15 -56 -8 -158 -47 -146 -55 6 -3 8
-17 6 -31 -2 -14 -5 -41 -6 -60 -2 -34 -1 -35 37 -35 36 0 41 -3 63 -44 30
-57 25 -53 75 -56 52 -3 72 10 98 61 26 51 25 61 -12 130 -17 32 -34 71 -37
86 -5 20 -10 25 -21 19z"/>
<path d="M2158 1193 c12 -2 30 -2 40 0 9 3 -1 5 -23 4 -22 0 -30 -2 -17 -4z"/>
<path d="M2053 1183 c9 -2 23 -2 30 0 6 3 -1 5 -18 5 -16 0 -22 -2 -12 -5z"/>
<path d="M1958 1173 c6 -2 18 -2 25 0 6 3 1 5 -13 5 -14 0 -19 -2 -12 -5z"/>
<path d="M2403 1163 c26 -2 68 -2 95 0 26 2 4 3 -48 3 -52 0 -74 -1 -47 -3z"/>
<path d="M1672 1133 c-26 -38 -34 -53 -29 -53 2 0 16 18 31 40 29 45 28 56 -2
13z"/>
<path d="M2173 1153 c15 -2 37 -2 50 0 12 2 0 4 -28 4 -27 0 -38 -2 -22 -4z"/>
<path d="M2028 1143 c12 -2 30 -2 40 0 9 3 -1 5 -23 4 -22 0 -30 -2 -17 -4z"/>
<path d="M3120 1060 c17 -33 33 -60 35 -60 3 0 -8 27 -25 60 -17 33 -33 60
-35 60 -3 0 8 -27 25 -60z"/>
<path d="M3090 1060 c6 -11 13 -20 16 -20 2 0 0 9 -6 20 -6 11 -13 20 -16 20
-2 0 0 -9 6 -20z"/>
<path d="M1620 1050 c-6 -11 -8 -20 -6 -20 3 0 10 9 16 20 6 11 8 20 6 20 -3
0 -10 -9 -16 -20z"/>
<path d="M1580 980 c-11 -22 -18 -40 -15 -40 2 0 14 18 25 40 11 22 18 40 15
40 -2 0 -14 -18 -25 -40z"/>
<path d="M2200 990 c0 -5 7 -7 15 -4 8 4 15 8 15 10 0 2 -7 4 -15 4 -8 0 -15
-4 -15 -10z"/>
<path d="M3130 989 c0 -3 16 -40 35 -81 19 -41 43 -106 54 -144 11 -38 20 -59
20 -47 1 28 -60 198 -88 243 -11 19 -21 32 -21 29z"/>
<path d="M2124 918 l-19 -23 23 19 c21 18 27 26 19 26 -2 0 -12 -10 -23 -22z"/>
<path d="M1490 910 c-6 -11 -8 -20 -6 -20 3 0 10 9 16 20 6 11 8 20 6 20 -3 0
-10 -9 -16 -20z"/>
<path d="M1537 895 c-24 -50 -20 -58 4 -12 11 22 19 41 17 43 -3 2 -12 -12
-21 -31z"/>
<path d="M2500 906 c0 -2 8 -10 18 -17 15 -13 16 -12 3 4 -13 16 -21 21 -21
13z"/>
<path d="M3201 905 c0 -5 6 -21 14 -35 8 -14 14 -20 14 -15 0 6 -6 21 -14 35
-8 14 -14 21 -14 15z"/>
<path d="M1495 788 c-8 -28 -15 -63 -14 -77 0 -14 7 1 14 34 7 33 16 68 20 78
4 9 5 17 1 17 -3 0 -12 -23 -21 -52z"/>
<path d="M3236 820 c10 -38 32 -87 32 -70 0 8 -8 33 -19 55 -10 22 -16 29 -13
15z"/>
<path d="M1415 780 c-8 -16 -15 -37 -15 -47 1 -28 39 -105 67 -135 23 -25 25
-31 14 -54 -9 -20 -9 -68 0 -207 12 -195 19 -220 67 -238 36 -14 131 -4 210
22 77 26 92 46 122 170 12 49 26 89 30 89 15 0 40 31 39 48 0 13 -3 11 -11 -6
-14 -29 -58 -31 -58 -3 0 11 -4 23 -10 26 -5 3 -10 -3 -10 -14 0 -14 -5 -19
-15 -15 -8 4 -15 17 -15 30 0 13 -4 24 -10 24 -5 0 -10 -12 -10 -26 0 -26 -1
-26 -52 -20 -29 3 -89 8 -134 12 -80 6 -81 7 -77 33 3 26 3 25 -12 -4 -16 -34
-18 -26 -6 28 5 21 5 37 0 37 -5 0 -12 -18 -15 -40 -6 -38 -17 -50 -28 -32 -3
4 0 28 6 53 6 24 10 55 8 69 -1 14 -3 35 -4 47 -3 33 -16 40 -16 9 0 -60 -43
12 -55 92 -3 23 -1 50 5 62 6 11 8 20 6 20 -3 0 -12 -13 -21 -30z"/>
<path d="M3287 673 c4 -32 0 -50 -17 -77 -12 -20 -19 -36 -16 -36 4 0 15 15
26 33 21 34 26 82 11 106 -6 10 -8 1 -4 -26z"/>
<path d="M1446 686 c3 -9 13 -16 22 -16 8 0 13 1 11 3 -2 1 -12 9 -22 16 -15
12 -17 12 -11 -3z"/>
<path d="M2955 605 c-152 -17 -183 -23 -191 -37 -5 -8 2 -9 22 -3 16 4 45 9
66 11 20 2 49 6 65 9 15 3 83 9 151 12 67 3 121 8 118 10 -10 11 -124 9 -231
-2z"/>
<path d="M2730 575 c-18 -19 -31 -38 -27 -42 4 -3 8 -4 10 -2 2 2 15 21 30 42
35 46 31 47 -13 2z"/>
<path d="M1582 595 c4 -4 22 -11 40 -15 28 -7 22 -8 -31 -9 -86 -1 -75 -7 26
-14 64 -4 81 -2 77 8 -3 7 -18 15 -33 18 -16 3 -42 9 -57 13 -16 4 -26 3 -22
-1z"/>
<path d="M3235 590 c-3 -5 -1 -10 4 -10 6 0 11 5 11 10 0 6 -2 10 -4 10 -3 0
-8 -4 -11 -10z"/>
<path d="M1904 530 c25 -27 46 -57 47 -67 0 -11 3 -13 6 -5 2 6 21 13 41 13
l37 2 -37 6 c-27 4 -47 18 -78 54 -23 26 -46 47 -52 47 -6 0 10 -22 36 -50z"/>
<path d="M1713 556 c0 -8 13 -16 32 -19 17 -3 49 -13 71 -23 21 -9 49 -19 62
-20 39 -5 7 23 -51 44 -81 30 -114 35 -114 18z"/>
<path d="M2879 566 c-4 -5 -84 -19 -111 -20 -10 0 -18 -4 -18 -9 0 -5 17 -7
39 -3 21 3 85 11 142 17 135 13 143 17 38 18 -47 1 -88 -1 -90 -3z"/>
<path d="M3203 553 c-26 -3 -33 -9 -32 -26 0 -12 3 -16 6 -9 2 6 10 12 17 12
7 0 21 7 32 15 10 8 17 14 14 13 -3 -1 -20 -3 -37 -5z"/>
</g>
</svg>
